<svg width="28" height="28" viewBox="0 0 28 28" fill="none" xmlns="http://www.w3.org/2000/svg">
<path fill-rule="evenodd" clip-rule="evenodd" d="M8.94355 25.6666H19.0546C23.01 25.6666 25.6663 22.8921 25.6663 18.7637V9.23609C25.6663 5.10772 23.01 2.33325 19.0558 2.33325H8.94355C4.98939 2.33325 2.33301 5.10772 2.33301 9.23609V18.7637C2.33301 22.8921 4.98939 25.6666 8.94355 25.6666ZM9.91436 12.8331C8.30594 12.8331 6.99902 11.5244 6.99902 9.91645C6.99902 8.30846 8.30594 6.99978 9.91436 6.99978C11.5216 6.99978 12.8297 8.30846 12.8297 9.91645C12.8297 11.5244 11.5216 12.8331 9.91436 12.8331ZM23.1234 17.4226C23.5141 18.4243 23.3111 19.6283 22.8935 20.6204C22.3984 21.8003 21.4505 22.6937 20.2562 23.0838C19.7259 23.2572 19.1698 23.333 18.6149 23.333H8.78256C7.80414 23.333 6.93833 23.0982 6.22856 22.6612C5.78393 22.3867 5.70533 21.7534 6.03499 21.3428C6.58638 20.6565 7.13073 19.9679 7.67978 19.2732C8.72625 17.944 9.43133 17.5587 10.215 17.897C10.5329 18.0367 10.852 18.2462 11.1805 18.4677C12.0557 19.0625 13.2723 19.88 14.8748 18.9926C15.9715 18.3784 16.6076 17.3248 17.1615 16.4074L17.1707 16.392C17.2099 16.3278 17.2488 16.2635 17.2875 16.1994L17.2877 16.1991L17.2877 16.1991C17.4738 15.8911 17.6575 15.5872 17.8653 15.3072C18.1257 14.9569 19.0912 13.8612 20.3418 14.6414C21.1384 15.1326 21.8083 15.7972 22.5251 16.5088C22.7985 16.7809 22.9932 17.0903 23.1234 17.4226Z" fill="#9E9E9E"/>
</svg>
